<svg width="108" height="41" viewBox="0 0 108 41" fill="none" xmlns="http://www.w3.org/2000/svg">
<rect width="108" height="30" rx="10" fill="white"/>
<path d="M10.0456 11.32V10.2H14.4276V11.32H10.0456ZM10.0456 15.24V14.12H14.2876V15.24H10.0456ZM9.38758 10.2H10.5776V20H9.38758V10.2ZM18.3858 20.14C17.7884 20.14 17.2564 20 16.7898 19.72C16.3324 19.4307 15.9731 19.034 15.7118 18.53C15.4598 18.026 15.3338 17.4427 15.3338 16.78C15.3338 16.108 15.4644 15.52 15.7258 15.016C15.9964 14.512 16.3698 14.12 16.8458 13.84C17.3311 13.56 17.8911 13.42 18.5258 13.42C19.1604 13.42 19.7018 13.5553 20.1498 13.826C20.6071 14.0873 20.9571 14.4653 21.1998 14.96C21.4424 15.4547 21.5638 16.0427 21.5638 16.724C21.5638 16.7893 21.5591 16.8593 21.5498 16.934C21.5498 16.9993 21.5498 17.0413 21.5498 17.06H16.0478V16.108H20.6678L20.2198 16.752C20.2478 16.7053 20.2758 16.6353 20.3038 16.542C20.3318 16.4393 20.3458 16.3553 20.3458 16.29C20.3458 15.9073 20.2664 15.576 20.1078 15.296C19.9584 15.016 19.7484 14.7967 19.4778 14.638C19.2071 14.4793 18.8898 14.4 18.5258 14.4C18.0964 14.4 17.7278 14.4933 17.4198 14.68C17.1211 14.8573 16.8878 15.1187 16.7198 15.464C16.5611 15.8 16.4771 16.2153 16.4678 16.71C16.4678 17.214 16.5471 17.6433 16.7058 17.998C16.8644 18.3527 17.0978 18.6233 17.4058 18.81C17.7138 18.9967 18.0871 19.09 18.5258 19.09C18.9644 19.09 19.3518 18.9967 19.6878 18.81C20.0238 18.614 20.3084 18.32 20.5418 17.928L21.4518 18.502C21.1158 19.0433 20.6911 19.454 20.1778 19.734C19.6738 20.0047 19.0764 20.14 18.3858 20.14ZM27.2288 16.08C27.2288 15.548 27.1122 15.1467 26.8788 14.876C26.6455 14.6053 26.3048 14.47 25.8568 14.47C25.5302 14.47 25.2408 14.54 24.9888 14.68C24.7462 14.8107 24.5548 14.9973 24.4148 15.24C24.2842 15.4827 24.2188 15.7627 24.2188 16.08V20H23.0988V13.56H24.2188V14.568C24.4335 14.176 24.6995 13.8867 25.0168 13.7C25.3435 13.5133 25.7168 13.42 26.1368 13.42C26.8182 13.42 27.3548 13.6487 27.7468 14.106C28.1482 14.554 28.3488 15.1653 28.3488 15.94V20H27.2288V16.08ZM29.4059 13.56H30.6659L32.2759 17.746L34.0259 13.07L35.9019 17.774L37.5259 13.56H38.7859L35.9859 20.49L34.0399 15.8L32.2059 20.49L29.4059 13.56ZM40.4056 18.012C40.4056 18.2547 40.4616 18.4647 40.5736 18.642C40.6949 18.8193 40.8582 18.9547 41.0636 19.048C41.2782 19.132 41.5209 19.174 41.7916 19.174C42.1369 19.174 42.4449 19.104 42.7156 18.964C42.9956 18.824 43.2149 18.628 43.3736 18.376C43.5416 18.1147 43.6256 17.816 43.6256 17.48L43.8496 18.32C43.8496 18.7307 43.7236 19.0713 43.4716 19.342C43.2289 19.6127 42.9256 19.8133 42.5616 19.944C42.2069 20.0747 41.8522 20.14 41.4976 20.14C41.1056 20.14 40.7369 20.0607 40.3916 19.902C40.0556 19.734 39.7849 19.496 39.5796 19.188C39.3742 18.88 39.2716 18.5067 39.2716 18.068C39.2716 17.4427 39.4909 16.9433 39.9296 16.57C40.3776 16.1873 40.9982 15.996 41.7916 15.996C42.2582 15.996 42.6456 16.052 42.9536 16.164C43.2709 16.2667 43.5229 16.388 43.7096 16.528C43.8962 16.6587 44.0222 16.766 44.0876 16.85V17.508C43.7609 17.284 43.4249 17.1253 43.0796 17.032C42.7342 16.9293 42.3656 16.878 41.9736 16.878C41.6096 16.878 41.3109 16.9247 41.0776 17.018C40.8536 17.1113 40.6856 17.242 40.5736 17.41C40.4616 17.578 40.4056 17.7787 40.4056 18.012ZM40.2376 15.044L39.6916 14.218C39.9342 14.0407 40.2656 13.8633 40.6856 13.686C41.1149 13.5087 41.6282 13.42 42.2256 13.42C42.7296 13.42 43.1682 13.4993 43.5416 13.658C43.9242 13.8073 44.2182 14.0267 44.4236 14.316C44.6382 14.6053 44.7456 14.96 44.7456 15.38V20H43.6256V15.534C43.6256 15.31 43.5882 15.128 43.5136 14.988C43.4389 14.8387 43.3316 14.722 43.1916 14.638C43.0609 14.554 42.9069 14.4933 42.7296 14.456C42.5522 14.4187 42.3656 14.4 42.1696 14.4C41.8522 14.4 41.5629 14.4373 41.3016 14.512C41.0496 14.5867 40.8349 14.6753 40.6576 14.778C40.4802 14.8807 40.3402 14.9693 40.2376 15.044ZM51.6834 13.56L47.4834 23.08H46.2234L47.9874 19.09L45.5234 13.56H46.8534L48.8974 18.6L48.4354 18.544L50.4234 13.56H51.6834ZM58.7567 15.17H60.0867L63.5867 20H62.1167L58.7567 15.17ZM57.0067 10.2H58.1967V20H57.0067V10.2ZM57.6647 11.25V10.2H59.6667C60.3014 10.2 60.8661 10.3213 61.3607 10.564C61.8647 10.7973 62.2614 11.1333 62.5507 11.572C62.8494 12.0107 62.9987 12.5333 62.9987 13.14C62.9987 13.7373 62.8494 14.26 62.5507 14.708C62.2614 15.1467 61.8647 15.4873 61.3607 15.73C60.8661 15.9633 60.3014 16.08 59.6667 16.08H57.6647V15.03H59.6667C60.0867 15.03 60.4554 14.9553 60.7727 14.806C61.0994 14.6567 61.3514 14.442 61.5287 14.162C61.7154 13.882 61.8087 13.5413 61.8087 13.14C61.8087 12.7387 61.7154 12.398 61.5287 12.118C61.3514 11.838 61.0994 11.6233 60.7727 11.474C60.4554 11.3247 60.0867 11.25 59.6667 11.25H57.6647ZM67.2627 20.14C66.6654 20.14 66.1334 20 65.6667 19.72C65.2094 19.4307 64.85 19.034 64.5887 18.53C64.3367 18.026 64.2107 17.4427 64.2107 16.78C64.2107 16.108 64.3414 15.52 64.6027 15.016C64.8734 14.512 65.2467 14.12 65.7227 13.84C66.208 13.56 66.768 13.42 67.4027 13.42C68.0374 13.42 68.5787 13.5553 69.0267 13.826C69.484 14.0873 69.834 14.4653 70.0767 14.96C70.3194 15.4547 70.4407 16.0427 70.4407 16.724C70.4407 16.7893 70.436 16.8593 70.4267 16.934C70.4267 16.9993 70.4267 17.0413 70.4267 17.06H64.9247V16.108H69.5447L69.0967 16.752C69.1247 16.7053 69.1527 16.6353 69.1807 16.542C69.2087 16.4393 69.2227 16.3553 69.2227 16.29C69.2227 15.9073 69.1434 15.576 68.9847 15.296C68.8354 15.016 68.6254 14.7967 68.3547 14.638C68.084 14.4793 67.7667 14.4 67.4027 14.4C66.9734 14.4 66.6047 14.4933 66.2967 14.68C65.998 14.8573 65.7647 15.1187 65.5967 15.464C65.438 15.8 65.354 16.2153 65.3447 16.71C65.3447 17.214 65.424 17.6433 65.5827 17.998C65.7414 18.3527 65.9747 18.6233 66.2827 18.81C66.5907 18.9967 66.964 19.09 67.4027 19.09C67.8414 19.09 68.2287 18.9967 68.5647 18.81C68.9007 18.614 69.1854 18.32 69.4187 17.928L70.3287 18.502C69.9927 19.0433 69.568 19.454 69.0547 19.734C68.5507 20.0047 67.9534 20.14 67.2627 20.14ZM71.4858 13.56H74.7058V14.61H71.4858V13.56ZM74.5938 10.424C74.5004 10.2653 74.3884 10.1673 74.2578 10.13C74.1364 10.0833 74.0198 10.06 73.9078 10.06C73.7678 10.06 73.6464 10.102 73.5438 10.186C73.4504 10.2607 73.3758 10.3913 73.3198 10.578C73.2638 10.7647 73.2358 11.012 73.2358 11.32V20H72.1158V11.18C72.1158 10.6667 72.1904 10.2467 72.3398 9.92C72.4891 9.59333 72.6991 9.35067 72.9698 9.192C73.2498 9.024 73.5858 8.94 73.9778 8.94C74.1831 8.94 74.3651 8.968 74.5238 9.024C74.6824 9.08 74.8178 9.15 74.9298 9.234C75.0511 9.318 75.1444 9.40667 75.2098 9.5L74.5938 10.424ZM77.1016 13.56V20H75.9816V13.56H77.1016ZM79.0476 14.792C78.8983 14.68 78.763 14.6007 78.6416 14.554C78.5203 14.498 78.3663 14.47 78.1796 14.47C77.8996 14.47 77.6803 14.54 77.5216 14.68C77.363 14.82 77.251 15.0113 77.1856 15.254C77.1296 15.4967 77.1016 15.772 77.1016 16.08H76.5976C76.5976 15.5667 76.6863 15.114 76.8636 14.722C77.0503 14.3207 77.2883 14.0033 77.5776 13.77C77.867 13.5367 78.161 13.42 78.4596 13.42C78.693 13.42 78.9076 13.4527 79.1036 13.518C79.309 13.574 79.4956 13.6907 79.6636 13.868L79.0476 14.792ZM83.0674 20.14C82.4701 20.14 81.9381 20 81.4714 19.72C81.0141 19.4307 80.6547 19.034 80.3934 18.53C80.1414 18.026 80.0154 17.4427 80.0154 16.78C80.0154 16.108 80.1461 15.52 80.4074 15.016C80.6781 14.512 81.0514 14.12 81.5274 13.84C82.0127 13.56 82.5727 13.42 83.2074 13.42C83.8421 13.42 84.3834 13.5553 84.8314 13.826C85.2887 14.0873 85.6387 14.4653 85.8814 14.96C86.1241 15.4547 86.2454 16.0427 86.2454 16.724C86.2454 16.7893 86.2407 16.8593 86.2314 16.934C86.2314 16.9993 86.2314 17.0413 86.2314 17.06H80.7294V16.108H85.3494L84.9014 16.752C84.9294 16.7053 84.9574 16.6353 84.9854 16.542C85.0134 16.4393 85.0274 16.3553 85.0274 16.29C85.0274 15.9073 84.9481 15.576 84.7894 15.296C84.6401 15.016 84.4301 14.7967 84.1594 14.638C83.8887 14.4793 83.5714 14.4 83.2074 14.4C82.7781 14.4 82.4094 14.4933 82.1014 14.68C81.8027 14.8573 81.5694 15.1187 81.4014 15.464C81.2427 15.8 81.1587 16.2153 81.1494 16.71C81.1494 17.214 81.2287 17.6433 81.3874 17.998C81.5461 18.3527 81.7794 18.6233 82.0874 18.81C82.3954 18.9967 82.7687 19.09 83.2074 19.09C83.6461 19.09 84.0334 18.9967 84.3694 18.81C84.7054 18.614 84.9901 18.32 85.2234 17.928L86.1334 18.502C85.7974 19.0433 85.3727 19.454 84.8594 19.734C84.3554 20.0047 83.7581 20.14 83.0674 20.14ZM88.0465 18.026C88.1771 18.222 88.3265 18.404 88.4945 18.572C88.6625 18.74 88.8538 18.8753 89.0685 18.978C89.2925 19.0713 89.5351 19.118 89.7965 19.118C90.1138 19.118 90.3611 19.048 90.5385 18.908C90.7251 18.7587 90.8185 18.558 90.8185 18.306C90.8185 18.082 90.7438 17.8953 90.5945 17.746C90.4545 17.5873 90.2725 17.4567 90.0485 17.354C89.8245 17.242 89.5865 17.1393 89.3345 17.046C89.0545 16.934 88.7698 16.8033 88.4805 16.654C88.2005 16.4953 87.9625 16.2947 87.7665 16.052C87.5798 15.8 87.4865 15.4873 87.4865 15.114C87.4865 14.7313 87.5845 14.414 87.7805 14.162C87.9858 13.91 88.2471 13.7233 88.5645 13.602C88.8911 13.4807 89.2271 13.42 89.5725 13.42C89.9178 13.42 90.2398 13.476 90.5385 13.588C90.8465 13.7 91.1171 13.8493 91.3505 14.036C91.5838 14.2227 91.7658 14.4373 91.8965 14.68L91.0005 15.254C90.8231 15.0113 90.5991 14.8107 90.3285 14.652C90.0671 14.4933 89.7685 14.414 89.4325 14.414C89.1991 14.414 88.9985 14.4653 88.8305 14.568C88.6625 14.6707 88.5785 14.8293 88.5785 15.044C88.5785 15.212 88.6438 15.3613 88.7745 15.492C88.9051 15.6227 89.0731 15.7393 89.2785 15.842C89.4838 15.9447 89.6985 16.0427 89.9225 16.136C90.2958 16.2853 90.6365 16.4487 90.9445 16.626C91.2525 16.794 91.4951 16.9993 91.6725 17.242C91.8591 17.4847 91.9525 17.7973 91.9525 18.18C91.9525 18.74 91.7471 19.2067 91.3365 19.58C90.9351 19.9533 90.4031 20.14 89.7405 20.14C89.3111 20.14 88.9238 20.0653 88.5785 19.916C88.2331 19.7573 87.9391 19.5567 87.6965 19.314C87.4631 19.0713 87.2858 18.824 87.1645 18.572L88.0465 18.026ZM94.547 9.08V20H93.427V9.08H94.547ZM97.557 16.08C97.557 15.548 97.4403 15.1467 97.207 14.876C96.983 14.6053 96.6423 14.47 96.185 14.47C95.8583 14.47 95.569 14.54 95.317 14.68C95.0743 14.82 94.883 15.0113 94.743 15.254C94.6123 15.4967 94.547 15.772 94.547 16.08H94.183C94.183 15.5667 94.281 15.114 94.477 14.722C94.673 14.3207 94.939 14.0033 95.275 13.77C95.6203 13.5367 96.017 13.42 96.465 13.42C96.913 13.42 97.3003 13.5133 97.627 13.7C97.963 13.8867 98.2196 14.1667 98.397 14.54C98.5836 14.9133 98.677 15.38 98.677 15.94V20H97.557V16.08Z" fill="black"/>
<path d="M54 41L42 30L66 30L54 41Z" fill="white"/>
</svg>
